<svg viewBox="0 0 1024 1024" version="1.1" xmlns="http://www.w3.org/2000/svg" desc="Created with imagetracer.js version 1.2.6" ><path fill="rgb(0,0,0)" stroke="rgb(0,0,0)" stroke-width="1.5" opacity="0.9882352941176471" d="M 501.5 290 L 525.5 290 L 559.5 296 L 582.5 304 L 619 325 L 620.5 328 L 623 329.5 L 640 343 L 655.5 363 L 658.5 362 L 659 364 L 657 364.5 L 664.5 376 L 666.5 375 L 670 380.5 L 668 381 L 675 397 L 680 392.5 L 685.5 385 L 688.5 383 L 690 380 L 694 377.5 L 697 372 Q 701.8 373.88 701 370.5 Q 715.77 357.27 735.5 349 L 750.5 346 L 756 347 L 757 351.5 L 755 361.5 L 745 384.5 Q 741.8 397.8 743 415.5 L 744 437.5 L 740 454.5 L 740 456.5 L 737 459.5 L 736 466 L 732 467 L 733 471.5 L 731 472.5 L 730.5 471 L 729 478 L 726 479.5 L 726 486.5 L 729 487 L 729 489.5 L 729 491.5 L 730 511.5 L 728 516.5 L 729 522 L 725 522 Q 726.5 528.37 723.5 528 L 721.5 527 L 718 533 L 714 534.5 Q 714.87 537.5 710.5 536 L 706.5 538 L 692.5 539 L 689.5 538 L 689 540.5 L 688 546.5 L 689 552.5 L 688 555.5 L 689 561.5 L 683 593.5 L 672 618.5 L 672 622.5 L 671.5 625 Q 669.75 622.25 668 626.5 L 663 634.5 L 664 638 L 660 639 L 656 647 L 648 653.5 Q 649.5 658.75 645 657 L 645 661 L 641.5 661 L 640 664 L 620 679.5 Q 620.87 682.5 616.5 681 L 605 690.5 L 604.5 694 L 601 693 L 599.5 697 Q 594.92 695.8 597 701 L 593.5 701 L 592 705 L 588.5 705 L 577 714.5 Q 578.35 719.08 572.5 717 L 570.5 721 L 567.5 720 L 560.5 725 L 558.5 725 L 557 728 L 550.5 728 L 545.5 730 L 543.5 730 L 535 732 L 534.5 734 L 531.5 732 L 528.5 733 L 525.5 734 L 518.5 733 L 506.5 734 L 504.5 734 L 500.5 733 L 497.5 734 L 492.5 733 L 490.5 734 L 484.5 731 L 482.5 731 Q 475.79 726.88 465 728 Q 466.25 725 462.5 726 L 458 723 Q 459.25 720 455.5 721 L 451.5 718 L 449.5 718 L 447 718 Q 448.88 713.2 445.5 714 L 443.5 713 L 441.5 713 L 440 711.5 L 440.5 710 L 437.5 711 L 436.5 708 L 435 707.5 L 435.5 706 L 434 704 L 429.5 704 L 428 701.5 Q 431.25 699.25 425.5 697 L 423.5 696 L 422 696.5 L 420.5 695 L 414.5 688 L 410 687 L 409.5 683 L 406.5 684 L 405.5 681 L 401 680 L 398.5 676 Q 396.25 679.25 394 673.5 L 390 670.5 L 386.5 666 L 378 660.5 L 375.5 657 L 373 655.5 L 372 653.5 L 373 650 L 368 650 L 366.5 648 L 364 643.5 L 365 640 L 363 641.5 L 362 641.5 L 360 637.5 L 360.5 636 L 356 633.5 L 347 617.5 L 349 614.5 L 345 612.5 L 342 601.5 L 342.5 600 L 340 598.5 L 339 593.5 L 341 588.5 L 337 588 L 336 580.5 L 337 570.5 L 336 567.5 L 335 561.5 L 335 559.5 L 336 556.5 L 335 539.5 L 333.5 538 L 331.5 537 L 320.5 538 L 318.5 537 L 315.5 538 L 309 536 Q 310.13 532.67 306 534 L 306 531.5 L 303.5 530 L 301 531 L 302 527.5 L 299.5 527 L 296 524.5 L 294 517.5 L 295 511.5 L 294 508.5 L 293 497 Q 296 498.25 295 494.5 Q 292 492.5 297 490.5 L 299 483.5 L 287 466.5 L 284 457.5 L 284.5 456 L 283 454.5 L 281 451.5 L 281 449.5 L 282.5 447 L 282.5 446 Q 279.5 446.87 281 442.5 L 281 440.5 L 280 420.5 L 281 417.5 L 281 395.5 L 279 387 Q 275.67 388.31 277 383.5 L 274 377.5 L 276 377 L 275.5 375 L 273.5 376 L 271 371.5 L 273 368.5 L 271.5 368 L 270 368.5 L 268 351.5 L 271.5 347 L 279.5 346 L 286.5 348 L 316.5 366 L 317.5 364 L 318 365.5 Q 315.25 367.25 319.5 369 L 322 370.5 L 326.5 373 L 328.5 373 L 331 374.5 L 330.5 376 L 327 374 L 328.5 376 L 336.5 384 L 338 383.5 L 338.5 385 L 339.5 383 L 340 385 L 342 386.5 L 342.5 388 L 339.5 386 L 340 387.5 L 347.5 397 L 349 395.5 L 348 393 L 352 391.5 L 358 374 L 363 370.5 L 366 362 L 370 360.5 L 371.5 359 L 373 355 L 380 349.5 L 382 346.5 L 388 342 L 389.5 340 Q 404.64 322.94 426 313 L 427.5 311 L 432.5 308 L 434.5 308 L 438.5 306 L 464.5 296 L 466.5 296 L 475.5 293 Q 486.72 294.22 493.5 291 L 495.5 291 L 501.5 290 Z M 416 444 L 405 448 Q 397 453 395 463 Q 395 475 400 482 Q 409 494 426 498 Q 444 500 454 492 L 466 477 Q 467 469 463 468 Q 452 454 436 447 Q 428 443 416 444 Z M 600 444 Q 583 447 573 456 L 558 472 L 562 484 Q 569 495 586 498 Q 605 500 615 491 Q 625 484 629 470 Q 630 459 626 455 Q 619 443 600 444 Z M 487 504 L 483 513 L 482 514 L 471 514 L 462 518 L 454 530 Q 452 544 458 550 Q 466 560 482 562 L 487 569 Q 494 578 507 582 Q 522 584 529 577 L 538 567 L 542 563 L 561 555 Q 568 551 570 542 Q 572 526 565 521 Q 559 512 543 514 L 537 506 L 535 504 L 536 524 L 538 525 L 544 523 Q 553 521 557 525 L 561 531 Q 563 540 559 544 L 552 550 L 549 549 L 551 545 L 550 542 L 543 545 L 530 564 Q 525 571 516 573 Q 504 574 500 569 L 487 552 L 477 542 L 473 544 L 474 550 L 470 548 L 463 540 L 464 529 L 472 523 Q 481 522 486 526 L 488 523 L 489 515 L 489 505 L 487 504 Z M 440 551 L 436 554 Q 426 563 421 577 L 417 594 L 415 596 L 412 594 Q 401 588 397 576 L 397 567 L 396 566 L 390 576 Q 389 585 394 589 Q 429 632 499 641 Q 533 643 558 635 Q 591 625 614 605 Q 626 596 634 582 Q 635 572 630 568 L 627 566 Q 629 578 623 584 L 610 596 L 602 575 L 590 556 L 583 551 L 580 558 Q 580 579 575 596 L 567 619 Q 564 623 556 623 L 559 612 L 558 606 L 519 611 Q 492 612 472 606 L 465 608 L 468 621 L 468 623 L 461 621 Q 452 612 449 597 Q 443 577 443 553 L 440 551 Z " /><path fill="rgb(251,250,250)" stroke="rgb(251,250,250)" stroke-width="1.5" opacity="1" d="M 415.5 444 Q 427.96 443.04 435.5 447 Q 452.42 454.08 463 467.5 Q 467.07 469.43 466 476.5 L 453.5 492 Q 444.36 499.86 425.5 498 Q 408.52 493.98 400 481.5 Q 394.5 475 395 462.5 Q 397.02 452.52 404.5 448 L 415.5 444 Z " /><path fill="rgb(251,250,250)" stroke="rgb(251,250,250)" stroke-width="1.5" opacity="1" d="M 599.5 444 Q 618.97 443.03 626 454.5 Q 630.2 459.3 629 469.5 Q 625.46 483.96 614.5 491 Q 605.25 499.75 585.5 498 Q 569.43 495.07 562 483.5 L 558 471.5 L 572.5 456 Q 582.9 446.9 599.5 444 Z " /><path fill="rgb(251,250,250)" stroke="rgb(251,250,250)" stroke-width="1.5" opacity="1" d="M 487 504 L 489 504.5 L 489 514.5 L 488 522.5 L 485.5 526 Q 481.33 521.67 471.5 523 L 464 528.5 L 463 539.5 L 469.5 548 L 474 550 L 473 543.5 L 476.5 542 L 487 551.5 L 499.5 569 Q 504.42 574.08 515.5 573 Q 525.38 570.87 530 563.5 L 542.5 545 L 549.5 542 L 551 544.5 L 549 548.5 L 551.5 550 L 559 543.5 Q 562.5 539.5 561 530.5 L 556.5 525 Q 553 521 543.5 523 L 537.5 525 L 536 523.5 L 535 504 L 537 505.5 L 542.5 514 Q 558.99 512.01 565 520.5 Q 572.14 526.36 570 541.5 Q 567.55 550.55 560.5 555 L 541.5 563 L 538 566.5 L 528.5 577 Q 521.72 583.72 506.5 582 Q 493.66 578.34 487 568.5 L 481.5 562 Q 465.79 559.71 458 549.5 Q 452 543.5 454 529.5 L 461.5 518 L 470.5 514 L 481.5 514 L 483 512.5 L 487 504 Z " /><path fill="rgb(251,250,250)" stroke="rgb(251,250,250)" stroke-width="1.5" opacity="1" d="M 439.5 551 L 443 552.5 Q 443.48 577.02 449 596.5 Q 451.83 611.67 460.5 621 L 467.5 623 L 468 620.5 L 465 607.5 L 471.5 606 Q 491.8 611.7 518.5 611 L 557.5 606 L 559 611.5 L 556 623 Q 563.68 623.3 567 618.5 L 575 595.5 Q 579.75 578.75 580 557.5 L 582.5 551 L 590 555.5 L 602 574.5 L 609.5 596 L 623 583.5 Q 628.67 577.87 627 566 L 630 567.5 Q 634.77 571.73 634 581.5 Q 626.29 595.79 613.5 605 Q 590.81 625.31 557.5 635 Q 533.13 643.13 498.5 641 Q 428.74 632.26 394 588.5 Q 388.6 585.4 390 575.5 L 395.5 566 L 397 566.5 L 397 575.5 Q 400.95 588.05 411.5 594 L 414.5 596 L 417 593.5 L 421 576.5 Q 426.14 563.14 435.5 554 L 439.5 551 Z " /></svg>